<svg width="121" height="48" viewBox="0 0 121 48" fill="none" xmlns="http://www.w3.org/2000/svg">
<path d="M22.278 45.3333C34.5818 45.3333 44.556 35.1851 44.556 22.6667C44.556 10.1482 34.5818 0 22.278 0C9.97419 0 0 10.1482 0 22.6667C0 35.1851 9.97419 45.3333 22.278 45.3333Z" fill="#3359DB"/>
<path d="M22.278 41.5555C32.5312 41.5555 40.843 33.0987 40.843 22.6667C40.843 12.2346 32.5312 3.77777 22.278 3.77777C12.0248 3.77777 3.71301 12.2346 3.71301 22.6667C3.71301 33.0987 12.0248 41.5555 22.278 41.5555Z" stroke="white" stroke-width="3" stroke-miterlimit="2.85812" stroke-linecap="square" stroke-dasharray="9 9"/>
<path d="M19.7469 10.2758L18.1229 11.0176L16.7309 8.792L19.7469 7.55556L21.835 9.78116L24.155 7.55556L26.9391 9.28658L25.315 11.0176L23.691 10.2758L21.835 12.7487L19.7469 10.2758Z" fill="#F4B14D"/>
<path d="M11.9216 15.2741L11.3699 16.9962L8.81462 16.5488L9.94206 13.4457L12.9651 13.3687L12.9049 10.125L16.0359 9.19119L16.2041 11.5781L14.5726 12.3029L15.1247 15.3633L11.9216 15.2741Z" fill="#F4B14D"/>
<path d="M9.84298 24.848L10.6133 26.4809L8.4621 27.9535L7.17028 24.9174L9.30377 22.7368L7.05785 20.4339L8.68759 17.558L10.4299 19.1657L9.74234 20.8364L12.2194 22.6611L9.84298 24.848Z" fill="#F4B14D"/>
<path d="M14.9455 33.1088L16.6107 33.7492L16.0535 36.3256L13.0589 35.0362L13.123 31.9601L9.93554 31.8714L9.1635 28.646L11.5147 28.5855L12.1509 30.2771L15.1811 29.8575L14.9455 33.1088Z" fill="#F4B14D"/>
<path d="M31.9591 15.2741L32.5108 16.9962L35.0661 16.5488L33.9386 13.4457L30.9155 13.3687L30.9757 10.125L27.8448 9.19114L27.6766 11.5781L29.3081 12.3029L28.756 15.3633L31.9591 15.2741Z" fill="#F4B14D"/>
<path d="M34.0377 24.848L33.2674 26.4809L35.4186 27.9535L36.7104 24.9174L34.5769 22.7368L36.8228 20.4339L35.1931 17.558L33.4508 19.1657L34.1383 20.8364L31.6612 22.6611L34.0377 24.848Z" fill="#F4B14D"/>
<path d="M28.9352 33.1088L27.27 33.7492L27.8272 36.3256L30.8218 35.0362L30.7577 31.9601L33.9451 31.8714L34.7172 28.646L32.3659 28.5855L31.7297 30.2771L28.6996 29.8575L28.9352 33.1088Z" fill="#F4B14D"/>
<path d="M24.2349 35.1018L25.8508 34.3419L27.2667 36.5518L24.2641 37.8218L22.1523 35.6196L19.8563 37.8709L17.0538 36.171L18.6591 34.422L20.2911 35.1457L22.1203 32.6523L24.2349 35.1018Z" fill="#F4B14D"/>
<path d="M21.604 29.4476L18.2324 32.8781C18.0673 33.0461 17.785 32.9271 17.785 32.6896V27.7587C17.785 27.6115 17.6676 27.492 17.5229 27.492H12.3184C12.1025 27.492 11.9791 27.2412 12.1087 27.0654L15.402 22.5977C15.4803 22.4916 15.4699 22.343 15.3777 22.2492L12.2417 19.0584C12.0766 18.8904 12.1935 18.6032 12.427 18.6032H17.5229C17.6676 18.6032 17.785 18.4838 17.785 18.3365V12.6187C17.785 12.3847 18.0599 12.2642 18.227 12.4248L22.0871 16.134C22.1925 16.2353 22.3586 16.2303 22.4579 16.1229L25.8188 12.4896C25.9815 12.3138 26.2718 12.4309 26.2718 12.6724V18.3365C26.2718 18.4838 26.3892 18.6032 26.5339 18.6032H32.0758C32.3163 18.6032 32.4298 18.9054 32.2505 19.0686L28.2312 22.7275C28.117 22.8315 28.1145 23.0126 28.2257 23.1198L32.2843 27.0318C32.4563 27.1976 32.3409 27.492 32.104 27.492H26.5339C26.3892 27.492 26.2718 27.6115 26.2718 27.7587V32.7395C26.2718 32.9696 26.0046 33.0917 25.8356 32.9388L21.9635 29.4369C21.8597 29.3431 21.7021 29.3478 21.604 29.4476Z" fill="white"/>
<path d="M53.9743 11.5555H55.8911L52.8932 2.78731H50.7728L47.781 11.5555H49.6323L50.2893 9.42878H53.3173L53.9743 11.5555ZM51.7823 4.46438H51.8243L52.929 8.05554H50.6776L51.7823 4.46438ZM56.6258 11.5555H58.3696V7.81856C58.3696 6.97394 58.8654 6.39061 59.6478 6.39061C60.4301 6.39061 60.8241 6.87674 60.8241 7.72741V11.5555H62.5679V7.35674C62.5679 5.83158 61.7677 4.92012 60.3463 4.92012C59.3612 4.92012 58.6863 5.39407 58.3456 6.20225H58.3098V5.04167H56.6258V11.5555ZM66.0499 11.6588C66.9934 11.6588 67.7342 11.1545 68.0444 10.4375H68.0745V11.5555H69.7943V2.78731H68.0505V6.15972H68.0147C67.7041 5.43661 66.9877 4.93834 66.0616 4.93834C64.4554 4.93834 63.4398 6.22047 63.4398 8.28643C63.4398 10.3707 64.4493 11.6588 66.0499 11.6588ZM66.6413 6.36021C67.5071 6.36021 68.0623 7.11372 68.0623 8.29861C68.0623 9.48958 67.5071 10.2309 66.6413 10.2309C65.7633 10.2309 65.2256 9.49563 65.2256 8.29861C65.2256 7.10763 65.7633 6.36021 66.6413 6.36021ZM73.8319 6.21438C74.6081 6.21438 75.1397 6.78558 75.1755 7.61803H72.458C72.5179 6.80381 73.0674 6.21438 73.8319 6.21438ZM75.1991 9.56247C75.0379 10.0607 74.5483 10.3828 73.9092 10.3828C73.0194 10.3828 72.4401 9.74478 72.4401 8.81509V8.70572H76.8538V8.16492C76.8538 6.18403 75.677 4.90189 73.814 4.90189C71.9208 4.90189 70.726 6.25087 70.726 8.32896C70.726 10.4132 71.9085 11.6953 73.8795 11.6953C75.4621 11.6953 76.6087 10.8385 76.7996 9.56247H75.1991ZM77.7973 11.5555H79.5411V2.78731H77.7973V11.5555ZM83.1899 10.3767C82.5989 10.3767 82.2049 10.0729 82.2049 9.58678C82.2049 9.12496 82.5749 8.82723 83.2257 8.77865L84.5755 8.69354V9.16754C84.5755 9.87238 83.9487 10.3767 83.1899 10.3767ZM82.6168 11.6588C83.4171 11.6588 84.2112 11.2517 84.5699 10.559H84.6057V11.5555H86.2896V7.07723C86.2896 5.76474 85.2207 4.90189 83.5783 4.90189C81.8821 4.90189 80.825 5.77083 80.7594 7.03469H82.3538C82.4377 6.55465 82.8496 6.22656 83.5005 6.22656C84.1575 6.22656 84.5755 6.57896 84.5755 7.18661V7.61803L82.9632 7.71527C81.3684 7.81247 80.4729 8.4991 80.4729 9.68403C80.4729 10.8567 81.3985 11.6588 82.6168 11.6588ZM52.1405 26.3741C54.2548 26.3741 55.7299 25.1345 55.933 23.1779H54.177C53.9861 24.217 53.2156 24.855 52.1466 24.855C50.7672 24.855 49.9009 23.7005 49.9009 21.829C49.9009 19.9818 50.779 18.8212 52.1405 18.8212C53.192 18.8212 54.004 19.526 54.1713 20.6015H55.9269C55.7898 18.6389 54.2128 17.3021 52.1405 17.3021C49.6441 17.3021 48.0615 19.0095 48.0615 21.8351C48.0615 24.6667 49.6323 26.3741 52.1405 26.3741ZM59.8387 26.362C61.7738 26.362 63.01 25.1042 63.01 22.9592C63.01 20.8446 61.7559 19.5686 59.8387 19.5686C57.9219 19.5686 56.6678 20.8507 56.6678 22.9592C56.6678 25.0981 57.904 26.362 59.8387 26.362ZM59.8387 25.0069C58.979 25.0069 58.4352 24.2717 58.4352 22.9653C58.4352 21.671 58.9908 20.9236 59.8387 20.9236C60.687 20.9236 61.2365 21.671 61.2365 22.9653C61.2365 24.2717 60.6927 25.0069 59.8387 25.0069ZM66.8501 26.362C68.7852 26.362 70.0215 25.1042 70.0215 22.9592C70.0215 20.8446 68.7673 19.5686 66.8501 19.5686C64.9329 19.5686 63.6788 20.8507 63.6788 22.9592C63.6788 25.0981 64.915 26.362 66.8501 26.362ZM66.8501 25.0069C65.99 25.0069 65.4466 24.2717 65.4466 22.9653C65.4466 21.671 66.0022 20.9236 66.8501 20.9236C67.6984 20.9236 68.2475 21.671 68.2475 22.9653C68.2475 24.2717 67.7041 25.0069 66.8501 25.0069ZM74.6618 19.605C73.7362 19.605 73.0255 20.079 72.6791 20.8446H72.6433V19.7083H70.923V28.349H72.6673V25.1285H72.7031C73.0434 25.8637 73.7598 26.3255 74.6915 26.3255C76.2921 26.3255 77.2836 25.0616 77.2836 22.9653C77.2836 20.8628 76.2864 19.605 74.6618 19.605ZM74.0765 24.8975C73.2225 24.8975 72.6612 24.1441 72.6612 22.9653C72.6612 21.7986 73.2225 21.0269 74.0765 21.0269C74.9484 21.0269 75.4979 21.7864 75.4979 22.9653C75.4979 24.1502 74.9484 24.8975 74.0765 24.8975ZM81.0578 20.8811C81.8345 20.8811 82.3661 21.4523 82.4019 22.2847H79.6844C79.7443 21.4705 80.2933 20.8811 81.0578 20.8811ZM82.4255 24.2291C82.2643 24.7274 81.7746 25.0495 81.1355 25.0495C80.2457 25.0495 79.6665 24.4115 79.6665 23.4818V23.3724H84.0797V22.8316C84.0797 20.8507 82.9034 19.5686 81.0399 19.5686C79.1471 19.5686 77.9524 20.9175 77.9524 22.9956C77.9524 25.0799 79.1349 26.362 81.1058 26.362C82.6884 26.362 83.8351 25.5052 84.026 24.2291H82.4255ZM84.9818 26.2222H86.7256V22.5824C86.7256 21.6649 87.2275 21.1302 88.0872 21.1302C88.3383 21.1302 88.5768 21.1727 88.7205 21.2335V19.6719C88.6009 19.6354 88.4279 19.605 88.2247 19.605C87.4721 19.605 86.9287 20.0547 86.7015 20.8811H86.6657V19.7083H84.9818V26.2222ZM91.7543 25.0434C91.1628 25.0434 90.7688 24.7396 90.7688 24.2535C90.7688 23.7916 91.1392 23.4939 91.7901 23.4453L93.1399 23.3602V23.8342C93.1399 24.5391 92.5126 25.0434 91.7543 25.0434ZM91.1807 26.3255C91.981 26.3255 92.7756 25.9184 93.1338 25.2257H93.1696V26.2222H94.854V21.7439C94.854 20.4314 93.7846 19.5686 92.1426 19.5686C90.4464 19.5686 89.3893 20.4375 89.3234 21.7014H90.9182C91.0016 21.2213 91.414 20.8932 92.0649 20.8932C92.7218 20.8932 93.1399 21.2456 93.1399 21.8533V22.2847L91.5271 22.3819C89.9327 22.4791 89.0368 23.1658 89.0368 24.3507C89.0368 25.5234 89.9624 26.3255 91.1807 26.3255ZM96.4484 18.2075V19.7083H95.5463V21.0451H96.4484V24.4661C96.4484 25.7361 97.0337 26.2465 98.5386 26.2465C98.8911 26.2465 99.1894 26.2161 99.3685 26.1736V24.8672C99.2611 24.8854 99.0999 24.8975 98.9448 24.8975C98.4311 24.8975 98.1922 24.6606 98.1922 24.1623V21.0451H99.3747V19.7083H98.1922V18.2075H96.4484ZM100.36 26.2222H102.104V19.7083H100.36V26.2222ZM101.226 18.8272C101.734 18.8272 102.134 18.414 102.134 17.9158C102.134 17.4115 101.734 17.0043 101.226 17.0043C100.718 17.0043 100.318 17.4115 100.318 17.9158C100.318 18.414 100.718 18.8272 101.226 18.8272ZM109.122 19.7083H107.3L105.974 24.6545H105.938L104.606 19.7083H102.737L104.953 26.2222H106.923L109.122 19.7083ZM112.424 20.8811C113.201 20.8811 113.732 21.4523 113.768 22.2847H111.051C111.11 21.4705 111.659 20.8811 112.424 20.8811ZM113.792 24.2291C113.63 24.7274 113.141 25.0495 112.502 25.0495C111.612 25.0495 111.033 24.4115 111.033 23.4818V23.3724H115.446V22.8316C115.446 20.8507 114.269 19.5686 112.406 19.5686C110.513 19.5686 109.319 20.9175 109.319 22.9956C109.319 25.0799 110.501 26.362 112.472 26.362C114.055 26.362 115.201 25.5052 115.392 24.2291H113.792ZM48.0021 38.3854C48.0558 40.0382 49.4235 41.0408 51.4779 41.0408C53.6336 41.0408 54.9537 39.9531 54.9537 38.2396C54.9537 36.9088 54.1591 36.1615 52.3375 35.7908L51.4241 35.6024C50.4085 35.3958 49.9905 35.0616 49.9905 34.5208C49.9905 33.8767 50.5881 33.4514 51.4779 33.4514C52.3856 33.4514 53.0247 33.901 53.0841 34.6484H54.7864C54.7567 33.0382 53.4903 31.9687 51.4779 31.9687C49.5607 31.9687 48.1868 33.0321 48.1868 34.6363C48.1868 35.9427 49.029 36.7812 50.7492 37.1276L51.657 37.3099C52.7377 37.5347 53.1439 37.8628 53.1439 38.4401C53.1439 39.0842 52.4869 39.5582 51.5255 39.5582C50.5461 39.5582 49.8175 39.1207 49.7039 38.3854H48.0021ZM58.8475 41.0287C60.7822 41.0287 62.0189 39.7708 62.0189 37.6259C62.0189 35.5113 60.7643 34.2352 58.8475 34.2352C56.9303 34.2352 55.6762 35.5174 55.6762 37.6259C55.6762 39.7647 56.9124 41.0287 58.8475 41.0287ZM58.8475 39.6736C57.9874 39.6736 57.444 38.9383 57.444 37.6319C57.444 36.3377 57.9992 35.5903 58.8475 35.5903C59.6954 35.5903 60.2449 36.3377 60.2449 37.6319C60.2449 38.9383 59.7015 39.6736 58.8475 39.6736ZM68.7372 36.7995C68.6599 35.3229 67.5608 34.2352 65.8288 34.2352C63.912 34.2352 62.6876 35.5356 62.6876 37.6259C62.6876 39.7526 63.912 41.0287 65.8411 41.0287C67.525 41.0287 68.6538 40.0382 68.7433 38.5009H67.1188C67.0113 39.2118 66.5574 39.6371 65.859 39.6371C64.9927 39.6371 64.4554 38.908 64.4554 37.6259C64.4554 36.368 64.9927 35.6267 65.8528 35.6267C66.5697 35.6267 67.0174 36.1128 67.1188 36.7995H68.7372ZM69.6152 40.8889H71.359V34.375H69.6152V40.8889ZM70.4814 33.4939C70.989 33.4939 71.3891 33.0807 71.3891 32.5824C71.3891 32.0781 70.989 31.671 70.4814 31.671C69.9738 31.671 69.5733 32.0781 69.5733 32.5824C69.5733 33.0807 69.9738 33.4939 70.4814 33.4939ZM75.3966 35.5477C76.1728 35.5477 76.7044 36.1189 76.7402 36.9514H74.0228C74.0826 36.1371 74.6321 35.5477 75.3966 35.5477ZM76.7638 38.8958C76.6026 39.3941 76.113 39.7161 75.4739 39.7161C74.5841 39.7161 74.0048 39.0781 74.0048 38.1484V38.0391H78.4185V37.4983C78.4185 35.5174 77.2417 34.2352 75.3787 34.2352C73.4855 34.2352 72.2907 35.5842 72.2907 37.6623C72.2907 39.7465 73.4732 41.0287 75.4442 41.0287C77.0268 41.0287 78.1734 40.1719 78.3643 38.8958H76.7638ZM79.7858 32.8741V34.375H78.8842V35.7118H79.7858V39.1328C79.7858 40.4027 80.3711 40.9132 81.8764 40.9132C82.2285 40.9132 82.5273 40.8828 82.7064 40.8403V39.5339C82.5989 39.5521 82.4377 39.5642 82.2822 39.5642C81.7685 39.5642 81.53 39.3272 81.53 38.829V35.7118H82.7125V34.375H81.53V32.8741H79.7858ZM84.4921 43.3012C86.1223 43.3012 86.9287 42.7057 87.4721 41.0347L89.6759 34.375H87.8364L86.4809 39.467H86.4451L85.0831 34.375H83.172L85.3998 40.895C85.4059 40.9193 85.34 41.1805 85.34 41.2048C85.2207 41.7213 84.904 41.9279 84.2711 41.9279C84.2055 41.9279 83.8888 41.9279 83.829 41.9158V43.283C83.8888 43.2951 84.4261 43.3012 84.4921 43.3012Z" fill="#3359DB"/>
</svg>
